<svg width="1323" height="1577" xmlns="http://www.w3.org/2000/svg" xmlns:xlink="http://www.w3.org/1999/xlink" xml:space="preserve" overflow="hidden"><g transform="translate(-83 33)"><path d="M777 986 777 1392.91" stroke="#00B050" stroke-width="5.72917" stroke-miterlimit="8" stroke-dasharray="5.72917 5.72917" fill="none" fill-rule="evenodd"/><text fill="#00B050" font-family="CMU Serif,CMU Serif_MSFontService,sans-serif" font-weight="500" font-size="64" transform="matrix(1 0 0 1 287.799 361)">log(</text><text fill="#00B050" font-family="CMU Serif,CMU Serif_MSFontService,sans-serif" font-style="italic" font-weight="500" font-size="64" transform="matrix(1 0 0 1 394.361 361)">β</text><text fill="#00B050" font-family="CMU Serif,CMU Serif_MSFontService,sans-serif" font-weight="500" font-size="64" transform="matrix(1 0 0 1 423.007 361)">)</text><text fill="#00B050" font-family="CMU Serif,CMU Serif_MSFontService,sans-serif" font-weight="500" font-size="64" transform="matrix(1 0 0 1 278.345 1008)">log(</text><text fill="#00B050" font-family="CMU Serif,CMU Serif_MSFontService,sans-serif" font-style="italic" font-weight="500" font-size="64" transform="matrix(1 0 0 1 384.908 1008)">V</text><text fill="#00B050" font-family="CMU Serif,CMU Serif_MSFontService,sans-serif" font-weight="500" font-size="64" transform="matrix(1 0 0 1 432.46 1008)">)</text><text fill="#00B050" font-family="CMU Serif,CMU Serif_MSFontService,sans-serif" font-weight="500" font-size="64" transform="matrix(1 0 0 1 278.345 792)">log(</text><text fill="#00B050" font-family="CMU Serif,CMU Serif_MSFontService,sans-serif" font-style="italic" font-weight="500" font-size="64" transform="matrix(1 0 0 1 384.908 792)">A</text><text fill="#00B050" font-family="CMU Serif,CMU Serif_MSFontService,sans-serif" font-weight="500" font-size="64" transform="matrix(1 0 0 1 432.46 792)">)</text><text font-family="CMU Serif,CMU Serif_MSFontService,sans-serif" font-weight="700" font-size="55" transform="matrix(1 0 0 1 839.391 1494)">Log(</text><text font-family="CMU Serif,CMU Serif_MSFontService,sans-serif" font-style="italic" font-weight="700" font-size="55" transform="matrix(1 0 0 1 964.86 1494)">A</text><text font-family="CMU Serif,CMU Serif_MSFontService,sans-serif" font-weight="700" font-size="55" transform="matrix(1 0 0 1 1012.41 1494)">/</text><text font-family="CMU Serif,CMU Serif_MSFontService,sans-serif" font-style="italic" font-weight="700" font-size="55" transform="matrix(1 0 0 1 1043.92 1494)">V</text><text font-family="CMU Serif,CMU Serif_MSFontService,sans-serif" font-weight="700" font-size="55" transform="matrix(1 0 0 1 1091.47 1494)">)</text><text font-family="CMU Serif,CMU Serif_MSFontService,sans-serif" font-style="italic" font-weight="500" font-size="55" transform="matrix(1 0 0 1 412.762 1495)">A</text><text font-family="CMU Serif,CMU Serif_MSFontService,sans-serif" font-weight="500" font-size="55" transform="matrix(1 0 0 1 453.439 1495)">/</text><text font-family="CMU Serif,CMU Serif_MSFontService,sans-serif" font-style="italic" font-weight="500" font-size="55" transform="matrix(1 0 0 1 480.939 1495)">V</text><text font-family="CMU Serif,CMU Serif_MSFontService,sans-serif" font-weight="500" font-size="55" transform="matrix(1 0 0 1 539.95 1495)">= 1</text><path d="M559 1433.99 1115.39 1433.99 1115.39 1442.01 559 1442.01ZM1110.81 1428.83 1156.64 1438 1110.81 1447.17Z" fill="#002060"/><path d="M560 764 771.904 979.467" stroke="#00B050" stroke-width="5.72917" stroke-miterlimit="8" stroke-dasharray="5.72917 5.72917" fill="none" fill-rule="evenodd"/><path d="M561 982 777.066 982" stroke="#00B050" stroke-width="5.72917" stroke-miterlimit="8" stroke-dasharray="5.72917 5.72917" fill="none" fill-rule="evenodd"/><path d="M5.01239e-06-1.14583 6.875-1.1458 6.875 1.14586-5.01239e-06 1.14583ZM9.16667-1.14579 16.0417-1.14576 16.0417 1.1459 9.16666 1.14587ZM18.3333-1.14575 25.2083-1.14572 25.2083 1.14594 18.3333 1.14591ZM27.5-1.14571 34.375-1.14568 34.375 1.14598 27.5 1.14595ZM36.6667-1.14567 41.25-1.14565 41.25 1.14601 36.6667 1.14599ZM36.6667-9.16651 82.5 0.000360892 36.6666 9.16683Z" fill="#00B050" transform="matrix(-1 0 0 1 549.5 335)"/><path d="M559 329 774.097 968.593" stroke="#00B050" stroke-width="5.72917" stroke-miterlimit="8" stroke-dasharray="5.72917 5.72917" fill="none" fill-rule="evenodd"/><path d="M5.01239e-06-1.14583 6.875-1.1458 6.875 1.14586-5.01239e-06 1.14583ZM9.16667-1.14579 16.0417-1.14576 16.0417 1.1459 9.16666 1.14587ZM18.3333-1.14575 25.2083-1.14572 25.2083 1.14594 18.3333 1.14591ZM27.5-1.14571 34.375-1.14568 34.375 1.14598 27.5 1.14595ZM36.6667-1.14567 41.25-1.14565 41.25 1.14601 36.6667 1.14599ZM36.6667-9.16651 82.5 0.000360892 36.6666 9.16683Z" fill="#00B050" transform="matrix(-1 0 0 1 549.5 982)"/><path d="M5.01239e-06-1.14583 6.875-1.1458 6.875 1.14586-5.01239e-06 1.14583ZM9.16667-1.14579 16.0417-1.14576 16.0417 1.1459 9.16666 1.14587ZM18.3333-1.14575 25.2083-1.14572 25.2083 1.14594 18.3333 1.14591ZM27.5-1.14571 34.375-1.14568 34.375 1.14598 27.5 1.14595ZM36.6667-1.14567 41.25-1.14565 41.25 1.14601 36.6667 1.14599ZM36.6667-9.16651 82.5 0.000360892 36.6666 9.16683Z" fill="#00B050" transform="matrix(-1 0 0 1 549.5 767)"/><path d="M1.14587 41.2501 1.14587 48.1251-1.14579 48.1251-1.1458 41.2501ZM1.14588 50.4167 1.14588 57.2917-1.14579 57.2917-1.14579 50.4167ZM1.14588 59.5834 1.14589 66.4584-1.14578 66.4584-1.14578 59.5834ZM1.14589 68.7501 1.1459 75.6251-1.14577 75.6251-1.14578 68.7501ZM1.1459 77.9167 1.1459 84.7917-1.14576 84.7917-1.14577 77.9167ZM1.14591 87.0834 1.14591 93.9584-1.14576 93.9584-1.14576 87.0834ZM1.14591 96.2501 1.14592 103.125-1.14575 103.125-1.14575 96.2501ZM1.14592 105.417 1.14593 112.292-1.14574 112.292-1.14575 105.417ZM1.14593 114.583 1.14593 121.458-1.14573 121.458-1.14574 114.583ZM1.14594 123.75 1.14594 130.625-1.14573 130.625-1.14573 123.75ZM1.14594 132.917 1.14595 139.792-1.14572 139.792-1.14572 132.917ZM1.14595 142.083 1.14596 148.958-1.14571 148.958-1.14572 142.083ZM1.14596 151.25 1.14596 158.125-1.1457 158.125-1.14571 151.25ZM1.14597 160.417 1.14597 167.292-1.14569 167.292-1.1457 160.417ZM1.14597 169.583 1.14598 176.458-1.14569 176.458-1.14569 169.583ZM1.14598 178.75 1.14599 185.625-1.14568 185.625-1.14569 178.75ZM1.14599 187.917 1.14599 194.792-1.14567 194.792-1.14568 187.917ZM1.146 197.083 1.146 203.958-1.14566 203.958-1.14567 197.083ZM1.146 206.25 1.14601 213.125-1.14566 213.125-1.14566 206.25ZM1.14601 215.417 1.14602 222.292-1.14565 222.292-1.14565 215.417ZM1.14602 224.583 1.14603 231.458-1.14564 231.458-1.14565 224.583ZM1.14603 233.75 1.14603 240.625-1.14563 240.625-1.14564 233.75ZM1.14603 242.917 1.14604 249.792-1.14563 249.792-1.14563 242.917ZM1.14604 252.083 1.14605 258.958-1.14562 258.958-1.14562 252.083ZM1.14605 261.25 1.14606 268.125-1.14561 268.125-1.14562 261.25ZM1.14606 270.417 1.14606 277.292-1.1456 277.292-1.14561 270.417ZM1.14607 279.583 1.14607 286.458-1.1456 286.458-1.1456 279.583ZM1.14607 288.75 1.14608 295.625-1.14559 295.625-1.14559 288.75ZM1.14608 297.917 1.14609 304.792-1.14558 304.792-1.14559 297.917ZM1.14609 307.083 1.14609 313.958-1.14557 313.958-1.14558 307.083ZM1.1461 316.25 1.1461 323.125-1.14557 323.125-1.14557 316.25ZM1.1461 325.417 1.14611 332.292-1.14556 332.292-1.14556 325.417ZM1.14611 334.583 1.14612 341.458-1.14555 341.458-1.14556 334.583ZM1.14612 343.75 1.14612 350.625-1.14554 350.625-1.14555 343.75ZM1.14613 352.917 1.14613 359.792-1.14553 359.792-1.14554 352.917ZM1.14613 362.083 1.14614 368.958-1.14553 368.958-1.14553 362.083ZM1.14614 371.25 1.14615 378.125-1.14552 378.125-1.14553 371.25ZM1.14615 380.417 1.14615 387.292-1.14551 387.292-1.14552 380.417ZM1.14616 389.583 1.14616 393.948-1.14551 393.948-1.14551 389.583ZM-9.16663 45.8333 0 0 9.16671 45.8333ZM9.16699 389.365 0.000360892 435.198-9.16634 389.365Z" fill="#00B050" transform="matrix(1 0 0 -1 147 766.198)"/><path d="M0 0 165 0.000360892" stroke="#00B050" stroke-width="2.29167" stroke-miterlimit="8" fill="none" fill-rule="evenodd" transform="matrix(-1 0 0 1 249 335)"/><path d="M0 0 165 0.000360892" stroke="#00B050" stroke-width="2.29167" stroke-miterlimit="8" fill="none" fill-rule="evenodd" transform="matrix(-1 0 0 1 249 767)"/><path d="M0 0 165 0.000360892" stroke="#00B050" stroke-width="2.29167" stroke-miterlimit="8" fill="none" fill-rule="evenodd" transform="matrix(-1 0 0 1 249 984)"/><path d="M1.1459 41.25 1.14591 48.125-1.14576 48.125-1.14577 41.25ZM1.14591 50.4167 1.14593 57.2917-1.14574 57.2917-1.14575 50.4167ZM1.14593 59.5833 1.14594 66.4583-1.14573 66.4583-1.14574 59.5833ZM1.14594 68.75 1.14596 75.625-1.14571 75.625-1.14572 68.75ZM1.14596 77.9167 1.14597 84.7917-1.1457 84.7917-1.14571 77.9167ZM1.14597 87.0833 1.14598 93.9583-1.14568 93.9583-1.14569 87.0833ZM1.14599 96.25 1.146 103.125-1.14567 103.125-1.14568 96.25ZM1.146 105.417 1.14601 112.292-1.14565 112.292-1.14566 105.417ZM1.14602 114.583 1.14603 121.458-1.14564 121.458-1.14565 114.583ZM1.14603 123.75 1.14604 130.625-1.14562 130.625-1.14563 123.75ZM1.14605 132.917 1.14606 139.792-1.14561 139.792-1.14562 132.917ZM1.14606 142.083 1.14607 148.958-1.14559 148.958-1.1456 142.083ZM1.14608 151.25 1.14609 158.125-1.14558 158.125-1.14559 151.25ZM1.14609 160.417 1.1461 167.292-1.14556 167.292-1.14557 160.417ZM1.14611 169.583 1.14612 176.458-1.14555 176.458-1.14556 169.583ZM1.14612 178.75 1.14613 182.459-1.14554 182.459-1.14555 178.75ZM-9.16659 45.8333 0 0 9.16674 45.8333ZM9.16695 177.875 0.000360892 223.709-9.16638 177.875Z" fill="#00B050" transform="matrix(1 0 0 -1 147 987.709)"/><text fill="#00B050" font-family="CMU Serif,CMU Serif_MSFontService,sans-serif" font-weight="500" font-size="64" transform="matrix(1 0 0 1 168.192 563)">2</text><text fill="#00B050" font-family="CMU Serif,CMU Serif_MSFontService,sans-serif" font-weight="500" font-size="64" transform="matrix(1 0 0 1 200.276 563)">×</text><text fill="#00B050" font-family="CMU Serif,CMU Serif_MSFontService,sans-serif" font-weight="500" font-size="64" transform="matrix(1 0 0 1 250.12 563)">log(</text><text fill="#00B050" font-family="CMU Serif,CMU Serif_MSFontService,sans-serif" font-style="italic" font-weight="500" font-size="64" transform="matrix(1 0 0 1 356.682 563)">A</text><text fill="#00B050" font-family="CMU Serif,CMU Serif_MSFontService,sans-serif" font-weight="500" font-size="64" transform="matrix(1 0 0 1 404.234 563)">/</text><text fill="#00B050" font-family="CMU Serif,CMU Serif_MSFontService,sans-serif" font-style="italic" font-weight="500" font-size="64" transform="matrix(1 0 0 1 436.317 563)">V</text><text fill="#00B050" font-family="CMU Serif,CMU Serif_MSFontService,sans-serif" font-weight="500" font-size="64" transform="matrix(1 0 0 1 483.87 563)">)</text><text fill="#00B050" font-family="CMU Serif,CMU Serif_MSFontService,sans-serif" font-weight="500" font-size="64" transform="matrix(1 0 0 1 167.792 895)">log(</text><text fill="#00B050" font-family="CMU Serif,CMU Serif_MSFontService,sans-serif" font-style="italic" font-weight="500" font-size="64" transform="matrix(1 0 0 1 274.355 895)">A</text><text fill="#00B050" font-family="CMU Serif,CMU Serif_MSFontService,sans-serif" font-weight="500" font-size="64" transform="matrix(1 0 0 1 321.907 895)">/</text><text fill="#00B050" font-family="CMU Serif,CMU Serif_MSFontService,sans-serif" font-style="italic" font-weight="500" font-size="64" transform="matrix(1 0 0 1 353.99 895)">V</text><text fill="#00B050" font-family="CMU Serif,CMU Serif_MSFontService,sans-serif" font-weight="500" font-size="64" transform="matrix(1 0 0 1 401.542 895)">)</text><text font-family="CMU Serif,CMU Serif_MSFontService,sans-serif" font-weight="700" font-size="55" transform="matrix(-1.83697e-16 -1 1 -1.83697e-16 519.113 209)">Log(</text><text font-family="CMU Serif,CMU Serif_MSFontService,sans-serif" font-style="italic" font-weight="700" font-size="55" transform="matrix(-1.83697e-16 -1 1 -1.83697e-16 519.113 83)">V</text><text font-family="CMU Serif,CMU Serif_MSFontService,sans-serif" font-weight="700" font-size="55" transform="matrix(-1.83697e-16 -1 1 -1.83697e-16 519.113 36)">)</text><path d="M4.01042-9.98251e-07 4.01077 1408.61-4.01007 1408.61-4.01042 9.98251e-07ZM9.16702 1404.03 0.000360892 1449.86-9.16632 1404.03Z" fill="#002060" transform="matrix(1 0 0 -1 560 1459.86)"/><text font-family="CMU Serif,CMU Serif_MSFontService,sans-serif" font-style="italic" font-weight="500" font-size="55" transform="matrix(1 0 0 1 800.837 1034)">P</text><path d="M786.166 1389.63 777 1435.46 767.833 1389.63Z" fill="#00B050"/><text fill="#00B050" font-family="CMU Serif,CMU Serif_MSFontService,sans-serif" font-weight="500" font-size="64" transform="matrix(1 0 0 1 801.547 1225)">log(</text><text fill="#00B050" font-family="CMU Serif,CMU Serif_MSFontService,sans-serif" font-style="italic" font-weight="500" font-size="64" transform="matrix(1 0 0 1 908.11 1225)">A</text><text fill="#00B050" font-family="CMU Serif,CMU Serif_MSFontService,sans-serif" font-weight="500" font-size="64" transform="matrix(1 0 0 1 955.662 1225)">/</text><text fill="#00B050" font-family="CMU Serif,CMU Serif_MSFontService,sans-serif" font-style="italic" font-weight="500" font-size="64" transform="matrix(1 0 0 1 987.745 1225)">V</text><text fill="#00B050" font-family="CMU Serif,CMU Serif_MSFontService,sans-serif" font-weight="500" font-size="64" transform="matrix(1 0 0 1 1035.3 1225)">)</text><path d="M778 982 1090.4 982" stroke="#00B050" stroke-width="5.72917" stroke-miterlimit="8" stroke-dasharray="5.72917 5.72917" fill="none" fill-rule="evenodd"/><path d="M765 982C765 974.82 770.82 969 778 969 785.18 969 791 974.82 791 982 791 989.18 785.18 995 778 995 770.82 995 765 989.18 765 982Z" stroke="#000000" stroke-width="2.29167" stroke-miterlimit="8" fill="#FFFF00" fill-rule="evenodd"/><text fill="#00B050" font-family="CMU Serif,CMU Serif_MSFontService,sans-serif" font-weight="500" font-size="64" transform="matrix(1 0 0 1 1187.49 1008)">log(</text><text fill="#00B050" font-family="CMU Serif,CMU Serif_MSFontService,sans-serif" font-style="italic" font-weight="500" font-size="64" transform="matrix(1 0 0 1 1294.05 1008)">D</text><text fill="#00B050" font-family="CMU Serif,CMU Serif_MSFontService,sans-serif" font-weight="500" font-size="64" transform="matrix(1 0 0 1 1342.75 1008)">)</text><path d="M5.01239e-06-1.14583 6.875-1.1458 6.875 1.14586-5.01239e-06 1.14583ZM9.16667-1.14579 16.0417-1.14576 16.0417 1.1459 9.16666 1.14587ZM18.3333-1.14575 25.2083-1.14572 25.2083 1.14594 18.3333 1.14591ZM27.5-1.14571 34.375-1.14568 34.375 1.14598 27.5 1.14595ZM36.6667-1.14567 41.25-1.14565 41.25 1.14601 36.6667 1.14599ZM36.6667-9.16651 82.5 0.000360892 36.6666 9.16683Z" fill="#00B050" transform="matrix(1 -1.22465e-16 -1.22465e-16 -1 1090 982)"/><text font-family="CMU Serif,CMU Serif_MSFontService,sans-serif" font-weight="700" font-size="55" transform="matrix(-1.83697e-16 -1 1 -1.83697e-16 1156.34 208)">Log(</text><text font-family="CMU Serif,CMU Serif_MSFontService,sans-serif" font-style="italic" font-weight="700" font-size="55" transform="matrix(-1.83697e-16 -1 1 -1.83697e-16 1156.34 83)">D</text><text font-family="CMU Serif,CMU Serif_MSFontService,sans-serif" font-weight="700" font-size="55" transform="matrix(-1.83697e-16 -1 1 -1.83697e-16 1156.34 35)">)</text><path d="M4.01042-1.01454e-06 4.01077 1385.34-4.01007 1385.34-4.01042 1.01454e-06ZM9.16702 1380.76 0.000360892 1426.59-9.16632 1380.76Z" fill="#002060" transform="matrix(1 0 0 -1 1090 1436.59)"/><path d="M624.5 355.5 624.5 477.5 585.5 355.5Z" stroke="#000000" stroke-width="6.875" stroke-miterlimit="8" fill="none" fill-rule="evenodd"/><text font-family="CMU Serif,CMU Serif_MSFontService,sans-serif" font-weight="700" font-size="55" transform="matrix(1 0 0 1 634.723 433)">-</text><text font-family="CMU Serif,CMU Serif_MSFontService,sans-serif" font-weight="500" font-size="55" transform="matrix(1 0 0 1 655.921 433)">3</text><text font-family="CMU Serif,CMU Serif_MSFontService,sans-serif" font-weight="700" font-size="55" transform="matrix(1 0 0 1 679.014 830)">-</text><text font-family="CMU Serif,CMU Serif_MSFontService,sans-serif" font-weight="500" font-size="55" transform="matrix(1 0 0 1 700.211 830)">1</text><path d="M0 0 85.8 0.000360892" stroke="#000000" stroke-width="6.875" stroke-miterlimit="8" fill="none" fill-rule="evenodd" transform="matrix(-1 0 0 1 669.3 964.5)"/><text font-family="CMU Serif,CMU Serif_MSFontService,sans-serif" font-weight="500" font-size="55" transform="matrix(1 0 0 1 684.789 979)">0</text><path d="M667.5 775.5 667.5 851.5 594.5 775.5Z" stroke="#000000" stroke-width="6.875" stroke-miterlimit="8" fill="none" fill-rule="evenodd"/></g></svg>